<svg width="298" height="311" viewBox="0 0 298 311" fill="none" xmlns="http://www.w3.org/2000/svg">
<path d="M132.605 57.7755C147.741 35.4807 147.742 35.3359 162.888 57.7755" stroke="url(#paint0_linear_302_3)" stroke-width="2" stroke-linecap="round"/>
<path d="M77.3423 121.474C59.7503 101.16 59.6104 101.123 85.2683 92.2477" stroke="url(#paint1_linear_302_3)" stroke-width="2" stroke-linecap="round"/>
<path d="M209.585 92.2477C235.012 101.021 235.152 100.983 217.335 121.474" stroke="url(#paint2_linear_302_3)" stroke-width="2" stroke-linecap="round"/>
<path d="M200.49 177.375C198.515 204.211 198.588 204.336 174.218 192.503" stroke="url(#paint3_linear_302_3)" stroke-width="2" stroke-linecap="round"/>
<path d="M119.583 192.793C95.3402 204.573 95.2674 204.698 93.4026 177.664" stroke="url(#paint4_linear_302_3)" stroke-width="2" stroke-linecap="round"/>
<path d="M95.4342 80.2631C94.046 53.4006 93.9588 53.2852 119.623 61.9864" stroke="url(#paint5_linear_302_3)" stroke-width="2" stroke-linecap="round"/>
<path d="M89.8017 164.264C63.4689 158.73 63.3345 158.784 78.4636 136.242" stroke="url(#paint6_linear_302_3)" stroke-width="2" stroke-linecap="round"/>
<path d="M177.764 61.2131C203.379 52.8426 203.468 52.7283 201.624 79.7747" stroke="url(#paint7_linear_302_3)" stroke-width="2" stroke-linecap="round"/>
<path d="M221.964 134.389C236.611 156.919 236.744 156.975 210.125 162.274" stroke="url(#paint8_linear_302_3)" stroke-width="2" stroke-linecap="round"/>
<path d="M166.659 195.479C154.417 219.476 154.434 219.62 136.601 199.25" stroke="url(#paint9_linear_302_3)" stroke-width="2" stroke-linecap="round"/>
<path d="M150.452 191.19C115.431 191.19 87.0456 162.889 87.0456 127.984C87.0456 93.0799 115.431 64.7789 150.452 64.7789C185.474 64.7789 213.859 93.0799 213.859 127.984C213.859 156.761 194.565 181.052 168.162 188.692C162.543 190.318 156.601 191.19 150.452 191.19Z" stroke="url(#paint10_linear_302_3)" stroke-width="2"/>
<path d="M139.718 75.3474C109.981 82.2885 113.897 110.921 126.082 119.886C150.743 138.031 180.958 151.7 171.486 182.067C166.119 199.275 134.67 192.132 124.922 186.694C111.673 181.199 85.7555 161.677 85.7555 130.442C85.7555 90.6757 117.959 63.6343 147.551 63.6343C177.144 63.6343 191.504 75.3475 205.285 94.0017C195.324 85.2771 166.735 69.0412 139.718 75.3474Z" fill="url(#paint11_linear_302_3)"/>
<path d="M64.9779 267.225C64.0819 267.225 63.0739 267.113 61.9539 266.889C60.8659 266.697 59.7939 266.409 58.7379 266.025C57.7139 265.609 56.8659 265.129 56.1939 264.585C55.5219 264.041 55.1859 263.417 55.1859 262.713C55.1859 262.393 55.2499 262.041 55.3779 261.657C55.5379 261.241 55.7459 260.793 56.0019 260.313C56.2579 259.833 56.5779 259.321 56.9619 258.777C57.1859 258.457 57.4419 258.217 57.7299 258.057C58.0499 257.897 58.4179 257.817 58.8339 257.817C59.4099 257.817 59.9699 257.945 60.5139 258.201C61.0579 258.425 61.6019 258.697 62.1459 259.017C62.6899 259.305 63.2499 259.577 63.8259 259.833C64.4339 260.057 65.0739 260.169 65.7459 260.169C66.3539 260.169 66.8019 260.105 67.0899 259.977C67.4099 259.849 67.5699 259.657 67.5699 259.401C67.5699 259.145 67.4579 258.937 67.2339 258.777C67.0419 258.617 66.7539 258.489 66.3699 258.393C66.0179 258.265 65.6019 258.153 65.1219 258.057C64.6419 257.961 64.1299 257.849 63.5859 257.721C63.0419 257.593 62.4819 257.433 61.9059 257.241C61.1699 257.017 60.4499 256.729 59.7459 256.377C59.0419 255.993 58.4019 255.497 57.8259 254.889C57.2819 254.281 56.8339 253.545 56.4819 252.681C56.1619 251.817 56.0019 250.761 56.0019 249.513C56.0019 247.849 56.3859 246.457 57.1539 245.337C57.9219 244.217 59.0579 243.369 60.5619 242.793C62.0659 242.217 63.9219 241.929 66.1299 241.929C66.6739 241.929 67.2179 241.961 67.7619 242.025C68.3059 242.089 68.8499 242.185 69.3939 242.313C69.9699 242.441 70.5299 242.617 71.0739 242.841C71.6499 243.033 72.2259 243.257 72.8019 243.513C73.9859 244.025 74.5939 244.745 74.6259 245.673C74.6579 246.569 74.3219 247.513 73.6179 248.505C73.2339 249.113 72.8339 249.577 72.4179 249.897C72.0339 250.185 71.6339 250.329 71.2179 250.329C70.7059 250.329 70.1459 250.185 69.5379 249.897C68.9299 249.609 68.2899 249.321 67.6179 249.033C66.9459 248.745 66.2739 248.601 65.6019 248.601C65.2179 248.601 64.8819 248.649 64.5939 248.745C64.3379 248.809 64.1459 248.921 64.0179 249.081C63.8899 249.209 63.8259 249.369 63.8259 249.561C63.8259 249.913 63.9379 250.201 64.1619 250.425C64.4179 250.617 64.7379 250.777 65.1219 250.905C65.5379 251.033 66.0019 251.145 66.5139 251.241C67.0579 251.337 67.6339 251.433 68.2419 251.529C69.0739 251.657 69.9219 251.865 70.7859 252.153C71.6819 252.409 72.4979 252.793 73.2339 253.305C73.9699 253.817 74.5619 254.521 75.0099 255.417C75.4579 256.313 75.6819 257.481 75.6819 258.921C75.6819 261.641 74.7699 263.705 72.9459 265.113C71.1539 266.521 68.4979 267.225 64.9779 267.225ZM89.8434 267.225C88.3714 267.225 86.8834 266.937 85.3794 266.361C83.8754 265.753 82.4834 264.905 81.2034 263.817C79.9554 262.697 78.9474 261.369 78.1794 259.833C77.4434 258.265 77.0754 256.521 77.0754 254.601C77.0754 252.841 77.4114 251.193 78.0834 249.657C78.7554 248.121 79.6674 246.777 80.8194 245.625C82.0034 244.441 83.3474 243.513 84.8514 242.841C86.3874 242.169 88.0194 241.833 89.7474 241.833C92.1154 241.833 94.2594 242.409 96.1794 243.561C98.0994 244.681 99.6354 246.201 100.787 248.121C101.939 250.041 102.515 252.185 102.515 254.553C102.515 256.569 102.131 258.361 101.363 259.929C100.595 261.497 99.5874 262.825 98.3394 263.913C97.0914 265.001 95.7154 265.817 94.2114 266.361C92.7394 266.937 91.2834 267.225 89.8434 267.225ZM89.7474 258.441C90.2274 258.441 90.7714 258.329 91.3794 258.105C92.0194 257.849 92.5634 257.433 93.0114 256.857C93.4914 256.281 93.7314 255.497 93.7314 254.505C93.7314 253.705 93.5554 253.017 93.2034 252.441C92.8834 251.865 92.4194 251.417 91.8114 251.097C91.2034 250.777 90.4994 250.617 89.6994 250.617C88.9954 250.617 88.3554 250.793 87.7794 251.145C87.2034 251.465 86.7394 251.929 86.3874 252.537C86.0354 253.113 85.8594 253.785 85.8594 254.553C85.8594 255.513 86.0834 256.281 86.5314 256.857C86.9794 257.433 87.5074 257.849 88.1154 258.105C88.7234 258.329 89.2674 258.441 89.7474 258.441ZM114.785 266.793C113.313 266.793 112.017 266.729 110.897 266.601C109.809 266.473 108.881 266.217 108.113 265.833C107.345 265.449 106.721 264.905 106.241 264.201C105.761 263.465 105.409 262.521 105.185 261.369C104.961 260.185 104.849 258.713 104.849 256.953V235.689C104.849 234.953 104.913 234.265 105.041 233.625C105.169 232.953 105.537 232.409 106.145 231.993C106.753 231.545 107.777 231.321 109.217 231.321C110.657 231.321 111.665 231.545 112.241 231.993C112.849 232.409 113.217 232.953 113.345 233.625C113.473 234.297 113.537 235.001 113.537 235.737V256.425C113.537 256.905 113.537 257.289 113.537 257.577C113.569 257.833 113.617 258.025 113.681 258.153C113.777 258.281 113.905 258.361 114.065 258.393C114.257 258.393 114.513 258.393 114.833 258.393C115.249 258.393 115.681 258.457 116.129 258.585C116.609 258.681 117.009 259.017 117.329 259.593C117.681 260.137 117.857 261.097 117.857 262.473C117.857 263.913 117.681 264.937 117.329 265.545C117.009 266.153 116.609 266.505 116.129 266.601C115.649 266.729 115.201 266.793 114.785 266.793ZM139.003 266.697C137.563 266.697 136.491 266.457 135.787 265.977C135.115 265.497 134.795 264.953 134.827 264.345H135.499C135.339 264.569 135.019 264.873 134.539 265.257C134.091 265.609 133.483 265.945 132.715 266.265C131.947 266.553 131.003 266.697 129.883 266.697C128.443 266.697 127.051 266.377 125.707 265.737C124.395 265.065 123.211 264.153 122.155 263.001C121.131 261.849 120.315 260.553 119.707 259.113C119.099 257.641 118.795 256.105 118.795 254.505C118.795 252.937 119.099 251.433 119.707 249.993C120.315 248.553 121.147 247.273 122.203 246.153C123.259 245.001 124.443 244.105 125.755 243.465C127.067 242.793 128.443 242.457 129.883 242.457C130.971 242.457 131.883 242.617 132.619 242.937C133.387 243.257 133.995 243.609 134.443 243.993C134.923 244.377 135.243 244.697 135.403 244.953H134.875C134.843 244.153 135.163 243.529 135.835 243.081C136.539 242.633 137.611 242.409 139.051 242.409C140.491 242.409 141.499 242.633 142.075 243.081C142.683 243.497 143.051 244.041 143.179 244.713C143.307 245.385 143.371 246.073 143.371 246.777V262.377C143.371 263.081 143.307 263.769 143.179 264.441C143.051 265.113 142.683 265.657 142.075 266.073C141.499 266.489 140.475 266.697 139.003 266.697ZM131.083 258.009C131.691 258.009 132.235 257.849 132.715 257.529C133.227 257.209 133.627 256.793 133.915 256.281C134.235 255.737 134.395 255.161 134.395 254.553C134.395 253.913 134.235 253.337 133.915 252.825C133.627 252.313 133.227 251.897 132.715 251.577C132.203 251.257 131.627 251.097 130.987 251.097C130.347 251.097 129.755 251.257 129.211 251.577C128.699 251.897 128.283 252.329 127.963 252.873C127.643 253.385 127.483 253.961 127.483 254.601C127.483 255.209 127.643 255.769 127.963 256.281C128.315 256.793 128.763 257.209 129.307 257.529C129.851 257.849 130.443 258.009 131.083 258.009ZM150.554 266.793C149.114 266.793 148.09 266.585 147.482 266.169C146.874 265.721 146.506 265.161 146.378 264.489C146.282 263.785 146.234 263.081 146.234 262.377V246.729C146.234 245.993 146.298 245.305 146.426 244.665C146.554 243.993 146.922 243.449 147.53 243.033C148.138 242.617 149.162 242.409 150.602 242.409C152.01 242.409 153.002 242.601 153.578 242.985C154.186 243.369 154.554 243.801 154.682 244.281C154.81 244.729 154.874 245.081 154.874 245.337L154.106 245.049C154.106 245.049 154.234 244.905 154.49 244.617C154.746 244.329 155.114 243.993 155.594 243.609C156.106 243.225 156.698 242.889 157.37 242.601C158.074 242.313 158.858 242.169 159.722 242.169C160.01 242.169 160.362 242.201 160.778 242.265C161.226 242.297 161.69 242.377 162.17 242.505C162.682 242.633 163.146 242.825 163.562 243.081C164.01 243.337 164.362 243.673 164.618 244.089C164.906 244.505 165.05 245.017 165.05 245.625C165.05 247.225 164.698 248.585 163.994 249.705C163.322 250.825 162.426 251.385 161.306 251.385C160.698 251.385 160.266 251.353 160.01 251.289C159.754 251.193 159.562 251.113 159.434 251.049C159.338 250.953 159.21 250.873 159.05 250.809C158.922 250.713 158.666 250.665 158.282 250.665C157.802 250.665 157.354 250.729 156.938 250.857C156.554 250.953 156.202 251.113 155.882 251.337C155.594 251.561 155.37 251.833 155.21 252.153C155.05 252.441 154.97 252.761 154.97 253.113V262.473C154.97 263.177 154.906 263.865 154.778 264.537C154.65 265.209 154.282 265.753 153.674 266.169C153.066 266.585 152.026 266.793 150.554 266.793ZM171.513 266.793C170.073 266.793 169.049 266.585 168.441 266.169C167.833 265.721 167.465 265.161 167.337 264.489C167.241 263.817 167.193 263.129 167.193 262.425V246.777C167.193 246.073 167.257 245.401 167.385 244.761C167.513 244.089 167.881 243.545 168.489 243.129C169.097 242.681 170.121 242.457 171.561 242.457C173.001 242.457 174.009 242.681 174.585 243.129C175.193 243.545 175.561 244.089 175.689 244.761C175.817 245.433 175.881 246.137 175.881 246.873V262.473C175.881 263.177 175.817 263.865 175.689 264.537C175.561 265.209 175.193 265.753 174.585 266.169C174.009 266.585 172.985 266.793 171.513 266.793ZM171.513 240.105C170.073 240.105 169.049 239.897 168.441 239.481C167.833 239.033 167.465 238.473 167.337 237.801C167.241 237.129 167.193 236.441 167.193 235.737C167.193 235.001 167.257 234.313 167.385 233.673C167.513 233.001 167.881 232.457 168.489 232.041C169.097 231.625 170.121 231.417 171.561 231.417C173.001 231.417 174.009 231.641 174.585 232.089C175.193 232.505 175.561 233.049 175.689 233.721C175.817 234.393 175.881 235.081 175.881 235.785C175.881 236.489 175.817 237.177 175.689 237.849C175.561 238.521 175.193 239.065 174.585 239.481C174.009 239.897 172.985 240.105 171.513 240.105ZM189.896 266.697C188.36 266.697 186.92 266.393 185.576 265.785C184.264 265.177 183.112 264.329 182.12 263.241C181.128 262.121 180.36 260.825 179.816 259.353C179.272 257.881 179 256.281 179 254.553V246.729C179 245.993 179.064 245.305 179.192 244.665C179.32 243.993 179.688 243.449 180.296 243.033C180.904 242.585 181.928 242.361 183.368 242.361C184.84 242.361 185.864 242.585 186.44 243.033C187.048 243.449 187.416 243.993 187.544 244.665C187.672 245.337 187.736 246.041 187.736 246.777V254.553C187.736 255.289 187.864 255.913 188.12 256.425C188.408 256.937 188.808 257.337 189.32 257.625C189.864 257.881 190.488 258.009 191.192 258.009C191.896 258.009 192.504 257.865 193.016 257.577C193.528 257.289 193.928 256.889 194.216 256.377C194.504 255.865 194.648 255.257 194.648 254.553V246.681C194.648 245.945 194.712 245.257 194.84 244.617C194.968 243.945 195.336 243.401 195.944 242.985C196.552 242.569 197.576 242.361 199.016 242.361C200.488 242.361 201.512 242.585 202.088 243.033C202.696 243.449 203.064 243.993 203.192 244.665C203.32 245.337 203.384 246.025 203.384 246.729V262.521C203.384 263.225 203.32 263.897 203.192 264.537C203.064 265.177 202.696 265.705 202.088 266.121C201.48 266.537 200.456 266.745 199.016 266.745C197.96 266.745 197.128 266.617 196.52 266.361C195.944 266.137 195.528 265.849 195.272 265.497C195.016 265.113 194.856 264.745 194.792 264.393C194.76 264.009 194.744 263.689 194.744 263.433L195.56 263.673C195.56 263.673 195.432 263.833 195.176 264.153C194.92 264.441 194.536 264.793 194.024 265.209C193.544 265.593 192.952 265.945 192.248 266.265C191.576 266.553 190.792 266.697 189.896 266.697ZM210.505 266.793C209.065 266.793 208.041 266.585 207.433 266.169C206.825 265.721 206.457 265.161 206.329 264.489C206.233 263.817 206.185 263.129 206.185 262.425V246.729C206.185 245.993 206.249 245.305 206.377 244.665C206.505 243.993 206.873 243.449 207.481 243.033C208.089 242.617 209.129 242.409 210.601 242.409C212.041 242.409 213.081 242.697 213.721 243.273C214.393 243.817 214.729 244.713 214.729 245.961L213.913 245.721C213.913 245.721 214.025 245.561 214.249 245.241C214.505 244.889 214.857 244.489 215.305 244.041C215.785 243.593 216.361 243.209 217.033 242.889C217.705 242.537 218.473 242.361 219.337 242.361C220.329 242.361 221.241 242.489 222.073 242.745C222.905 243.001 223.657 243.401 224.329 243.945C225.033 244.457 225.641 245.097 226.153 245.865C226.505 245.449 226.985 244.969 227.593 244.425C228.201 243.881 228.921 243.401 229.753 242.985C230.617 242.569 231.577 242.361 232.633 242.361C234.521 242.361 236.121 242.841 237.433 243.801C238.777 244.761 239.785 246.153 240.457 247.977C241.161 249.801 241.513 252.009 241.513 254.601V262.425C241.513 263.129 241.449 263.817 241.321 264.489C241.193 265.161 240.825 265.721 240.217 266.169C239.609 266.585 238.569 266.793 237.097 266.793C235.657 266.793 234.633 266.569 234.025 266.121C233.417 265.673 233.049 265.113 232.921 264.441C232.825 263.769 232.777 263.081 232.777 262.377V254.553C232.777 253.785 232.681 253.161 232.489 252.681C232.329 252.169 232.073 251.785 231.721 251.529C231.401 251.273 230.985 251.145 230.473 251.145C229.929 251.145 229.481 251.257 229.129 251.481C228.809 251.705 228.569 252.073 228.409 252.585C228.281 253.065 228.217 253.737 228.217 254.601V262.425C228.217 263.129 228.153 263.817 228.025 264.489C227.897 265.161 227.529 265.721 226.921 266.169C226.313 266.585 225.273 266.793 223.801 266.793C222.361 266.793 221.337 266.569 220.729 266.121C220.121 265.673 219.753 265.113 219.625 264.441C219.529 263.769 219.481 263.081 219.481 262.377V254.553C219.481 253.785 219.401 253.145 219.241 252.633C219.081 252.121 218.825 251.753 218.473 251.529C218.153 251.273 217.721 251.145 217.177 251.145C216.537 251.145 216.057 251.305 215.737 251.625C215.417 251.945 215.193 252.361 215.065 252.873C214.969 253.385 214.921 253.945 214.921 254.553V262.473C214.921 263.177 214.857 263.865 214.729 264.537C214.601 265.209 214.233 265.753 213.625 266.169C213.017 266.585 211.977 266.793 210.505 266.793Z" fill="url(#paint12_linear_302_3)"/>
<defs>
<linearGradient id="paint0_linear_302_3" x1="299.839" y1="49.3968" x2="296.486" y2="77.4088" gradientUnits="userSpaceOnUse">
<stop stop-color="#FF8008"/>
<stop offset="1" stop-color="#FFC837"/>
</linearGradient>
<linearGradient id="paint1_linear_302_3" x1="113.012" y1="-42.0684" x2="139.153" y2="-31.5098" gradientUnits="userSpaceOnUse">
<stop stop-color="#FF8008"/>
<stop offset="1" stop-color="#FFC837"/>
</linearGradient>
<linearGradient id="paint2_linear_302_3" x1="260.482" y1="251.453" x2="232.52" y2="255.387" gradientUnits="userSpaceOnUse">
<stop stop-color="#FF8008"/>
<stop offset="1" stop-color="#FFC837"/>
</linearGradient>
<linearGradient id="paint3_linear_302_3" x1="59.6017" y1="268.164" x2="48.5356" y2="242.254" gradientUnits="userSpaceOnUse">
<stop stop-color="#FF8008"/>
<stop offset="1" stop-color="#FFC837"/>
</linearGradient>
<linearGradient id="paint4_linear_302_3" x1="-29.187" y1="116.516" x2="-12.2373" y2="93.9143" gradientUnits="userSpaceOnUse">
<stop stop-color="#FF8008"/>
<stop offset="1" stop-color="#FFC837"/>
</linearGradient>
<linearGradient id="paint5_linear_302_3" x1="223.95" y1="-27.33" x2="238.149" y2="-2.99916" gradientUnits="userSpaceOnUse">
<stop stop-color="#FF8008"/>
<stop offset="1" stop-color="#FFC837"/>
</linearGradient>
<linearGradient id="paint6_linear_302_3" x1="19.4219" y1="12.699" x2="46.6815" y2="5.30141" gradientUnits="userSpaceOnUse">
<stop stop-color="#FF8008"/>
<stop offset="1" stop-color="#FFC837"/>
</linearGradient>
<linearGradient id="paint7_linear_302_3" x1="314.669" y1="157.084" x2="294.783" y2="177.158" gradientUnits="userSpaceOnUse">
<stop stop-color="#FF8008"/>
<stop offset="1" stop-color="#FFC837"/>
</linearGradient>
<linearGradient id="paint8_linear_302_3" x1="164.315" y1="291.609" x2="139.863" y2="277.594" gradientUnits="userSpaceOnUse">
<stop stop-color="#FF8008"/>
<stop offset="1" stop-color="#FFC837"/>
</linearGradient>
<linearGradient id="paint9_linear_302_3" x1="1.71181" y1="224.616" x2="1.5488" y2="196.415" gradientUnits="userSpaceOnUse">
<stop stop-color="#FF8008"/>
<stop offset="1" stop-color="#FFC837"/>
</linearGradient>
<linearGradient id="paint10_linear_302_3" x1="244.887" y1="3.47798" x2="291.379" y2="40.0683" gradientUnits="userSpaceOnUse">
<stop stop-color="#FF8008"/>
<stop offset="1" stop-color="#FFC837"/>
</linearGradient>
<linearGradient id="paint11_linear_302_3" x1="127.098" y1="63.4897" x2="214.139" y2="92.616" gradientUnits="userSpaceOnUse">
<stop stop-color="#FF8008"/>
<stop offset="1" stop-color="#FFC837"/>
</linearGradient>
<linearGradient id="paint12_linear_302_3" x1="141.649" y1="312.161" x2="141.649" y2="234.022" gradientUnits="userSpaceOnUse">
<stop stop-color="#0044F8"/>
<stop offset="1" stop-color="#0887FF"/>
</linearGradient>
</defs>
</svg>
