<svg width="285" height="65" viewBox="0 0 285 65" fill="none" xmlns="http://www.w3.org/2000/svg">
<g clip-path="url(#clip0_302_21)">
<path d="M38.6286 6.22454C44.2449 -2.04796 44.2451 -2.10167 49.8651 6.22454" stroke="url(#paint0_linear_302_21)" stroke-linecap="round"/>
<path d="M18.1233 29.8599C11.5957 22.3226 11.5439 22.3087 21.0642 19.0155" stroke="url(#paint1_linear_302_21)" stroke-linecap="round"/>
<path d="M67.1921 19.0154C76.6268 22.2706 76.6788 22.2567 70.0676 29.8599" stroke="url(#paint2_linear_302_21)" stroke-linecap="round"/>
<path d="M63.8172 50.6019C63.0847 60.5595 63.1114 60.606 54.0691 56.2154" stroke="url(#paint3_linear_302_21)" stroke-linecap="round"/>
<path d="M33.7967 56.3229C24.8014 60.6938 24.7744 60.7403 24.0825 50.7094" stroke="url(#paint4_linear_302_21)" stroke-linecap="round"/>
<path d="M24.8363 14.5686C24.3212 4.60121 24.2888 4.5584 33.8117 7.78696" stroke="url(#paint5_linear_302_21)" stroke-linecap="round"/>
<path d="M22.7464 45.7373C12.9755 43.6837 12.9257 43.704 18.5393 35.3396" stroke="url(#paint6_linear_302_21)" stroke-linecap="round"/>
<path d="M55.385 7.50005C64.8892 4.39417 64.9223 4.35175 64.238 14.3873" stroke="url(#paint7_linear_302_21)" stroke-linecap="round"/>
<path d="M71.7853 34.6521C77.2201 43.0118 77.2696 43.0326 67.3925 44.9989" stroke="url(#paint8_linear_302_21)" stroke-linecap="round"/>
<path d="M51.2644 57.3195C46.7217 66.2238 46.7283 66.2771 40.1113 58.7188" stroke="url(#paint9_linear_302_21)" stroke-linecap="round"/>
<path d="M45.2508 55.099C32.6015 55.099 22.3526 44.8777 22.3526 32.2756C22.3526 19.6735 32.6015 9.45215 45.2508 9.45215C57.9001 9.45215 68.149 19.6735 68.149 32.2756C68.149 42.6647 61.1833 51.4375 51.6471 54.1969C49.6184 54.784 47.4724 55.099 45.2508 55.099Z" stroke="url(#paint10_linear_302_21)" stroke-width="2"/>
<path d="M41.2678 12.7446C30.2337 15.3201 31.687 25.9441 36.2083 29.2708C45.3585 36.0033 56.5699 41.0752 53.0554 52.343C51.0639 58.7281 39.3947 56.0775 35.7777 54.06C30.8617 52.0211 21.245 44.7774 21.245 33.1877C21.245 18.4322 33.1941 8.39844 44.1744 8.39844C55.1546 8.39844 60.4832 12.7446 65.5966 19.6663C61.9006 16.429 51.2927 10.4047 41.2678 12.7446Z" fill="url(#paint11_linear_302_21)"/>
<path d="M94.8401 48.864C93.9441 48.864 92.9361 48.752 91.8161 48.528C90.7281 48.336 89.6561 48.048 88.6001 47.664C87.5761 47.248 86.7281 46.768 86.0561 46.224C85.3841 45.68 85.0481 45.056 85.0481 44.352C85.0481 44.032 85.1121 43.68 85.2401 43.296C85.4001 42.88 85.6081 42.432 85.8641 41.952C86.1201 41.472 86.4401 40.96 86.8241 40.416C87.0481 40.096 87.3041 39.856 87.5921 39.696C87.9121 39.536 88.2801 39.456 88.6961 39.456C89.2721 39.456 89.8321 39.584 90.3761 39.84C90.9201 40.064 91.4641 40.336 92.0081 40.656C92.5521 40.944 93.1121 41.216 93.6881 41.472C94.2961 41.696 94.9361 41.808 95.6081 41.808C96.2161 41.808 96.6641 41.744 96.9521 41.616C97.2721 41.488 97.4321 41.296 97.4321 41.04C97.4321 40.784 97.3201 40.576 97.0961 40.416C96.9041 40.256 96.6161 40.128 96.2321 40.032C95.8801 39.904 95.4641 39.792 94.9841 39.696C94.5041 39.6 93.9921 39.488 93.4481 39.36C92.9041 39.232 92.3441 39.072 91.7681 38.88C91.0321 38.656 90.3121 38.368 89.6081 38.016C88.9041 37.632 88.2641 37.136 87.6881 36.528C87.1441 35.92 86.6961 35.184 86.3441 34.32C86.0241 33.456 85.8641 32.4 85.8641 31.152C85.8641 29.488 86.2481 28.096 87.0161 26.976C87.7841 25.856 88.9201 25.008 90.4241 24.432C91.9281 23.856 93.7841 23.568 95.9921 23.568C96.5361 23.568 97.0801 23.6 97.6241 23.664C98.1681 23.728 98.7121 23.824 99.2561 23.952C99.8321 24.08 100.392 24.256 100.936 24.48C101.512 24.672 102.088 24.896 102.664 25.152C103.848 25.664 104.456 26.384 104.488 27.312C104.52 28.208 104.184 29.152 103.48 30.144C103.096 30.752 102.696 31.216 102.28 31.536C101.896 31.824 101.496 31.968 101.08 31.968C100.568 31.968 100.008 31.824 99.4001 31.536C98.7921 31.248 98.1521 30.96 97.4801 30.672C96.8081 30.384 96.1361 30.24 95.4641 30.24C95.0801 30.24 94.7441 30.288 94.4561 30.384C94.2001 30.448 94.0081 30.56 93.8801 30.72C93.7521 30.848 93.6881 31.008 93.6881 31.2C93.6881 31.552 93.8001 31.84 94.0241 32.064C94.2801 32.256 94.6001 32.416 94.9841 32.544C95.4001 32.672 95.8641 32.784 96.3761 32.88C96.9201 32.976 97.4961 33.072 98.1041 33.168C98.9361 33.296 99.7841 33.504 100.648 33.792C101.544 34.048 102.36 34.432 103.096 34.944C103.832 35.456 104.424 36.16 104.872 37.056C105.32 37.952 105.544 39.12 105.544 40.56C105.544 43.28 104.632 45.344 102.808 46.752C101.016 48.16 98.3601 48.864 94.8401 48.864ZM119.706 48.864C118.234 48.864 116.746 48.576 115.242 48C113.738 47.392 112.346 46.544 111.066 45.456C109.818 44.336 108.81 43.008 108.042 41.472C107.306 39.904 106.938 38.16 106.938 36.24C106.938 34.48 107.274 32.832 107.946 31.296C108.618 29.76 109.53 28.416 110.682 27.264C111.866 26.08 113.21 25.152 114.714 24.48C116.25 23.808 117.882 23.472 119.61 23.472C121.978 23.472 124.122 24.048 126.042 25.2C127.962 26.32 129.498 27.84 130.65 29.76C131.802 31.68 132.378 33.824 132.378 36.192C132.378 38.208 131.994 40 131.226 41.568C130.458 43.136 129.45 44.464 128.202 45.552C126.954 46.64 125.578 47.456 124.074 48C122.602 48.576 121.146 48.864 119.706 48.864ZM119.61 40.08C120.09 40.08 120.634 39.968 121.242 39.744C121.882 39.488 122.426 39.072 122.874 38.496C123.354 37.92 123.594 37.136 123.594 36.144C123.594 35.344 123.418 34.656 123.066 34.08C122.746 33.504 122.282 33.056 121.674 32.736C121.066 32.416 120.362 32.256 119.562 32.256C118.858 32.256 118.218 32.432 117.642 32.784C117.066 33.104 116.602 33.568 116.25 34.176C115.898 34.752 115.722 35.424 115.722 36.192C115.722 37.152 115.946 37.92 116.394 38.496C116.842 39.072 117.37 39.488 117.978 39.744C118.586 39.968 119.13 40.08 119.61 40.08ZM144.647 48.432C143.175 48.432 141.879 48.368 140.759 48.24C139.671 48.112 138.743 47.856 137.975 47.472C137.207 47.088 136.583 46.544 136.103 45.84C135.623 45.104 135.271 44.16 135.047 43.008C134.823 41.824 134.711 40.352 134.711 38.592V17.328C134.711 16.592 134.775 15.904 134.903 15.264C135.031 14.592 135.399 14.048 136.007 13.632C136.615 13.184 137.639 12.96 139.079 12.96C140.519 12.96 141.527 13.184 142.103 13.632C142.711 14.048 143.079 14.592 143.207 15.264C143.335 15.936 143.399 16.64 143.399 17.376V38.064C143.399 38.544 143.399 38.928 143.399 39.216C143.431 39.472 143.479 39.664 143.543 39.792C143.639 39.92 143.767 40 143.927 40.032C144.119 40.032 144.375 40.032 144.695 40.032C145.111 40.032 145.543 40.096 145.991 40.224C146.471 40.32 146.871 40.656 147.191 41.232C147.543 41.776 147.719 42.736 147.719 44.112C147.719 45.552 147.543 46.576 147.191 47.184C146.871 47.792 146.471 48.144 145.991 48.24C145.511 48.368 145.063 48.432 144.647 48.432ZM168.866 48.336C167.426 48.336 166.354 48.096 165.65 47.616C164.978 47.136 164.658 46.592 164.69 45.984H165.362C165.202 46.208 164.882 46.512 164.402 46.896C163.954 47.248 163.346 47.584 162.578 47.904C161.81 48.192 160.866 48.336 159.746 48.336C158.306 48.336 156.914 48.016 155.57 47.376C154.258 46.704 153.074 45.792 152.018 44.64C150.994 43.488 150.178 42.192 149.57 40.752C148.962 39.28 148.658 37.744 148.658 36.144C148.658 34.576 148.962 33.072 149.57 31.632C150.178 30.192 151.01 28.912 152.066 27.792C153.122 26.64 154.306 25.744 155.618 25.104C156.93 24.432 158.306 24.096 159.746 24.096C160.834 24.096 161.746 24.256 162.482 24.576C163.25 24.896 163.858 25.248 164.306 25.632C164.786 26.016 165.106 26.336 165.266 26.592H164.738C164.706 25.792 165.026 25.168 165.698 24.72C166.402 24.272 167.474 24.048 168.914 24.048C170.354 24.048 171.362 24.272 171.938 24.72C172.546 25.136 172.914 25.68 173.042 26.352C173.17 27.024 173.234 27.712 173.234 28.416V44.016C173.234 44.72 173.17 45.408 173.042 46.08C172.914 46.752 172.546 47.296 171.938 47.712C171.362 48.128 170.338 48.336 168.866 48.336ZM160.946 39.648C161.554 39.648 162.098 39.488 162.578 39.168C163.09 38.848 163.49 38.432 163.778 37.92C164.098 37.376 164.258 36.8 164.258 36.192C164.258 35.552 164.098 34.976 163.778 34.464C163.49 33.952 163.09 33.536 162.578 33.216C162.066 32.896 161.49 32.736 160.85 32.736C160.21 32.736 159.618 32.896 159.074 33.216C158.562 33.536 158.146 33.968 157.826 34.512C157.506 35.024 157.346 35.6 157.346 36.24C157.346 36.848 157.506 37.408 157.826 37.92C158.178 38.432 158.626 38.848 159.17 39.168C159.714 39.488 160.306 39.648 160.946 39.648ZM180.416 48.432C178.976 48.432 177.952 48.224 177.344 47.808C176.736 47.36 176.368 46.8 176.24 46.128C176.144 45.424 176.096 44.72 176.096 44.016V28.368C176.096 27.632 176.16 26.944 176.288 26.304C176.416 25.632 176.784 25.088 177.392 24.672C178 24.256 179.024 24.048 180.464 24.048C181.872 24.048 182.864 24.24 183.44 24.624C184.048 25.008 184.416 25.44 184.544 25.92C184.672 26.368 184.736 26.72 184.736 26.976L183.968 26.688C183.968 26.688 184.096 26.544 184.352 26.256C184.608 25.968 184.976 25.632 185.456 25.248C185.968 24.864 186.56 24.528 187.232 24.24C187.936 23.952 188.72 23.808 189.584 23.808C189.872 23.808 190.224 23.84 190.64 23.904C191.088 23.936 191.552 24.016 192.032 24.144C192.544 24.272 193.008 24.464 193.424 24.72C193.872 24.976 194.224 25.312 194.48 25.728C194.768 26.144 194.912 26.656 194.912 27.264C194.912 28.864 194.56 30.224 193.856 31.344C193.184 32.464 192.288 33.024 191.168 33.024C190.56 33.024 190.128 32.992 189.872 32.928C189.616 32.832 189.424 32.752 189.296 32.688C189.2 32.592 189.072 32.512 188.912 32.448C188.784 32.352 188.528 32.304 188.144 32.304C187.664 32.304 187.216 32.368 186.8 32.496C186.416 32.592 186.064 32.752 185.744 32.976C185.456 33.2 185.232 33.472 185.072 33.792C184.912 34.08 184.832 34.4 184.832 34.752V44.112C184.832 44.816 184.768 45.504 184.64 46.176C184.512 46.848 184.144 47.392 183.536 47.808C182.928 48.224 181.888 48.432 180.416 48.432ZM201.375 48.432C199.935 48.432 198.911 48.224 198.303 47.808C197.695 47.36 197.327 46.8 197.199 46.128C197.103 45.456 197.055 44.768 197.055 44.064V28.416C197.055 27.712 197.119 27.04 197.247 26.4C197.375 25.728 197.743 25.184 198.351 24.768C198.959 24.32 199.983 24.096 201.423 24.096C202.863 24.096 203.871 24.32 204.447 24.768C205.055 25.184 205.423 25.728 205.551 26.4C205.679 27.072 205.743 27.776 205.743 28.512V44.112C205.743 44.816 205.679 45.504 205.551 46.176C205.423 46.848 205.055 47.392 204.447 47.808C203.871 48.224 202.847 48.432 201.375 48.432ZM201.375 21.744C199.935 21.744 198.911 21.536 198.303 21.12C197.695 20.672 197.327 20.112 197.199 19.44C197.103 18.768 197.055 18.08 197.055 17.376C197.055 16.64 197.119 15.952 197.247 15.312C197.375 14.64 197.743 14.096 198.351 13.68C198.959 13.264 199.983 13.056 201.423 13.056C202.863 13.056 203.871 13.28 204.447 13.728C205.055 14.144 205.423 14.688 205.551 15.36C205.679 16.032 205.743 16.72 205.743 17.424C205.743 18.128 205.679 18.816 205.551 19.488C205.423 20.16 205.055 20.704 204.447 21.12C203.871 21.536 202.847 21.744 201.375 21.744ZM219.758 48.336C218.222 48.336 216.782 48.032 215.438 47.424C214.126 46.816 212.974 45.968 211.982 44.88C210.99 43.76 210.222 42.464 209.678 40.992C209.134 39.52 208.862 37.92 208.862 36.192V28.368C208.862 27.632 208.926 26.944 209.054 26.304C209.182 25.632 209.55 25.088 210.158 24.672C210.766 24.224 211.79 24 213.23 24C214.702 24 215.726 24.224 216.302 24.672C216.91 25.088 217.278 25.632 217.406 26.304C217.534 26.976 217.598 27.68 217.598 28.416V36.192C217.598 36.928 217.726 37.552 217.982 38.064C218.27 38.576 218.67 38.976 219.182 39.264C219.726 39.52 220.35 39.648 221.054 39.648C221.758 39.648 222.366 39.504 222.878 39.216C223.39 38.928 223.79 38.528 224.078 38.016C224.366 37.504 224.51 36.896 224.51 36.192V28.32C224.51 27.584 224.574 26.896 224.702 26.256C224.83 25.584 225.198 25.04 225.806 24.624C226.414 24.208 227.438 24 228.878 24C230.35 24 231.374 24.224 231.95 24.672C232.558 25.088 232.926 25.632 233.054 26.304C233.182 26.976 233.246 27.664 233.246 28.368V44.16C233.246 44.864 233.182 45.536 233.054 46.176C232.926 46.816 232.558 47.344 231.95 47.76C231.342 48.176 230.318 48.384 228.878 48.384C227.822 48.384 226.99 48.256 226.382 48C225.806 47.776 225.39 47.488 225.134 47.136C224.878 46.752 224.718 46.384 224.654 46.032C224.622 45.648 224.606 45.328 224.606 45.072L225.422 45.312C225.422 45.312 225.294 45.472 225.038 45.792C224.782 46.08 224.398 46.432 223.886 46.848C223.406 47.232 222.814 47.584 222.11 47.904C221.438 48.192 220.654 48.336 219.758 48.336ZM240.367 48.432C238.927 48.432 237.903 48.224 237.295 47.808C236.687 47.36 236.319 46.8 236.191 46.128C236.095 45.456 236.047 44.768 236.047 44.064V28.368C236.047 27.632 236.111 26.944 236.239 26.304C236.367 25.632 236.735 25.088 237.343 24.672C237.951 24.256 238.991 24.048 240.463 24.048C241.903 24.048 242.943 24.336 243.583 24.912C244.255 25.456 244.591 26.352 244.591 27.6L243.775 27.36C243.775 27.36 243.887 27.2 244.111 26.88C244.367 26.528 244.719 26.128 245.167 25.68C245.647 25.232 246.223 24.848 246.895 24.528C247.567 24.176 248.335 24 249.199 24C250.191 24 251.103 24.128 251.935 24.384C252.767 24.64 253.519 25.04 254.191 25.584C254.895 26.096 255.503 26.736 256.015 27.504C256.367 27.088 256.847 26.608 257.455 26.064C258.063 25.52 258.783 25.04 259.615 24.624C260.479 24.208 261.439 24 262.495 24C264.383 24 265.983 24.48 267.295 25.44C268.639 26.4 269.647 27.792 270.319 29.616C271.023 31.44 271.375 33.648 271.375 36.24V44.064C271.375 44.768 271.311 45.456 271.183 46.128C271.055 46.8 270.687 47.36 270.079 47.808C269.471 48.224 268.431 48.432 266.959 48.432C265.519 48.432 264.495 48.208 263.887 47.76C263.279 47.312 262.911 46.752 262.783 46.08C262.687 45.408 262.639 44.72 262.639 44.016V36.192C262.639 35.424 262.543 34.8 262.351 34.32C262.191 33.808 261.935 33.424 261.583 33.168C261.263 32.912 260.847 32.784 260.335 32.784C259.791 32.784 259.343 32.896 258.991 33.12C258.671 33.344 258.431 33.712 258.271 34.224C258.143 34.704 258.079 35.376 258.079 36.24V44.064C258.079 44.768 258.015 45.456 257.887 46.128C257.759 46.8 257.391 47.36 256.783 47.808C256.175 48.224 255.135 48.432 253.663 48.432C252.223 48.432 251.199 48.208 250.591 47.76C249.983 47.312 249.615 46.752 249.487 46.08C249.391 45.408 249.343 44.72 249.343 44.016V36.192C249.343 35.424 249.263 34.784 249.103 34.272C248.943 33.76 248.687 33.392 248.335 33.168C248.015 32.912 247.583 32.784 247.039 32.784C246.399 32.784 245.919 32.944 245.599 33.264C245.279 33.584 245.055 34 244.927 34.512C244.831 35.024 244.783 35.584 244.783 36.192V44.112C244.783 44.816 244.719 45.504 244.591 46.176C244.463 46.848 244.095 47.392 243.487 47.808C242.879 48.224 241.839 48.432 240.367 48.432Z" fill="url(#paint12_linear_302_21)"/>
</g>
<defs>
<linearGradient id="paint0_linear_302_21" x1="100.681" y1="3.11562" x2="99.4368" y2="13.5095" gradientUnits="userSpaceOnUse">
<stop stop-color="#FF8008"/>
<stop offset="1" stop-color="#FFC837"/>
</linearGradient>
<linearGradient id="paint1_linear_302_21" x1="31.3587" y1="-30.8226" x2="41.0583" y2="-26.9048" gradientUnits="userSpaceOnUse">
<stop stop-color="#FF8008"/>
<stop offset="1" stop-color="#FFC837"/>
</linearGradient>
<linearGradient id="paint2_linear_302_21" x1="86.0773" y1="78.0887" x2="75.7021" y2="79.5484" gradientUnits="userSpaceOnUse">
<stop stop-color="#FF8008"/>
<stop offset="1" stop-color="#FFC837"/>
</linearGradient>
<linearGradient id="paint3_linear_302_21" x1="11.5406" y1="84.2894" x2="7.43452" y2="74.6753" gradientUnits="userSpaceOnUse">
<stop stop-color="#FF8008"/>
<stop offset="1" stop-color="#FFC837"/>
</linearGradient>
<linearGradient id="paint4_linear_302_21" x1="-21.4045" y1="28.0202" x2="-15.1153" y2="19.6339" gradientUnits="userSpaceOnUse">
<stop stop-color="#FF8008"/>
<stop offset="1" stop-color="#FFC837"/>
</linearGradient>
<linearGradient id="paint5_linear_302_21" x1="72.5223" y1="-25.3539" x2="77.7907" y2="-16.326" gradientUnits="userSpaceOnUse">
<stop stop-color="#FF8008"/>
<stop offset="1" stop-color="#FFC837"/>
</linearGradient>
<linearGradient id="paint6_linear_302_21" x1="-3.36813" y1="-10.5011" x2="6.74658" y2="-13.246" gradientUnits="userSpaceOnUse">
<stop stop-color="#FF8008"/>
<stop offset="1" stop-color="#FFC837"/>
</linearGradient>
<linearGradient id="paint7_linear_302_21" x1="106.184" y1="43.0731" x2="98.805" y2="50.5216" gradientUnits="userSpaceOnUse">
<stop stop-color="#FF8008"/>
<stop offset="1" stop-color="#FFC837"/>
</linearGradient>
<linearGradient id="paint8_linear_302_21" x1="50.3945" y1="92.9886" x2="41.3218" y2="87.7884" gradientUnits="userSpaceOnUse">
<stop stop-color="#FF8008"/>
<stop offset="1" stop-color="#FFC837"/>
</linearGradient>
<linearGradient id="paint9_linear_302_21" x1="-9.93947" y1="68.1308" x2="-9.99996" y2="57.667" gradientUnits="userSpaceOnUse">
<stop stop-color="#FF8008"/>
<stop offset="1" stop-color="#FFC837"/>
</linearGradient>
<linearGradient id="paint10_linear_302_21" x1="80.2907" y1="-13.9226" x2="97.5416" y2="-0.345702" gradientUnits="userSpaceOnUse">
<stop stop-color="#FF8008"/>
<stop offset="1" stop-color="#FFC837"/>
</linearGradient>
<linearGradient id="paint11_linear_302_21" x1="36.585" y1="8.34479" x2="68.8816" y2="19.1521" gradientUnits="userSpaceOnUse">
<stop stop-color="#FF8008"/>
<stop offset="1" stop-color="#FFC837"/>
</linearGradient>
<linearGradient id="paint12_linear_302_21" x1="173.071" y1="93.2033" x2="173.071" y2="15.6016" gradientUnits="userSpaceOnUse">
<stop stop-color="#0044F8"/>
<stop offset="1" stop-color="#0887FF"/>
</linearGradient>
<clipPath id="clip0_302_21">
<rect width="285" height="65" fill="white"/>
</clipPath>
</defs>
</svg>
