<svg width="40" height="40" viewBox="0 0 40 40" fill="none" xmlns="http://www.w3.org/2000/svg">
<path d="M35 16.6666C35 28.3333 20 38.3333 20 38.3333C20 38.3333 5 28.3333 5 16.6666C5 12.6884 6.58035 8.87307 9.3934 6.06002C12.2064 3.24698 16.0218 1.66663 20 1.66663C23.9782 1.66663 27.7936 3.24698 30.6066 6.06002C33.4196 8.87307 35 12.6884 35 16.6666Z" stroke="#2F3952" stroke-width="3" stroke-linecap="round" stroke-linejoin="round"/>
<path d="M20 21.6666C22.7614 21.6666 25 19.428 25 16.6666C25 13.9052 22.7614 11.6666 20 11.6666C17.2386 11.6666 15 13.9052 15 16.6666C15 19.428 17.2386 21.6666 20 21.6666Z" stroke="#2F3952" stroke-width="3" stroke-linecap="round" stroke-linejoin="round"/>
</svg>
