<svg width="40" height="40" viewBox="0 0 40 40" fill="none" xmlns="http://www.w3.org/2000/svg">
<path d="M20 36.6667C29.2048 36.6667 36.6667 29.2048 36.6667 20C36.6667 10.7953 29.2048 3.33337 20 3.33337C10.7953 3.33337 3.33334 10.7953 3.33334 20C3.33334 29.2048 10.7953 36.6667 20 36.6667Z" stroke="#2F3952" stroke-width="3" stroke-linecap="round" stroke-linejoin="round"/>
<path d="M20 30C25.5228 30 30 25.5228 30 20C30 14.4772 25.5228 10 20 10C14.4772 10 10 14.4772 10 20C10 25.5228 14.4772 30 20 30Z" stroke="#2F3952" stroke-width="3" stroke-linecap="round" stroke-linejoin="round"/>
<path d="M20 23.3333C21.8409 23.3333 23.3333 21.8409 23.3333 20C23.3333 18.159 21.8409 16.6666 20 16.6666C18.159 16.6666 16.6667 18.159 16.6667 20C16.6667 21.8409 18.159 23.3333 20 23.3333Z" stroke="#2F3952" stroke-width="3" stroke-linecap="round" stroke-linejoin="round"/>
</svg>
